HIERARCHY
ROOT Hips
{
	OFFSET -3.958830 18.904000 13.208200
	CHANNELS 6 Xposition Yposition Zposition Zrotation Yrotation Xrotation 
	JOINT LHipJoint
	{
		OFFSET 0.000000 0.000000 0.000000
		CHANNELS 3 Zrotation Yrotation Xrotation
		JOINT LeftUpLeg
		{
			OFFSET 1.800000 -1.400000 0.085000
			CHANNELS 3 Zrotation Yrotation Xrotation
			JOINT LeftLeg
			{
				OFFSET 2.215000 -6.000000 0.000000
				CHANNELS 3 Zrotation Yrotation Xrotation
				JOINT LeftFoot
				{
					OFFSET 2.500000 -6.900000 0.000000
					CHANNELS 3 Zrotation Yrotation Xrotation
					JOINT LeftToeBase
					{
						OFFSET 0.200000 -0.500000 1.950000
						CHANNELS 3 Zrotation Yrotation Xrotation
						End Site
						{
							OFFSET 0.000000 0.000000 0.000000
						}
					}
				}
			}
		}
	}
	JOINT RHipJoint
	{
		OFFSET 0.000000 0.000000 0.000000
		CHANNELS 3 Zrotation Yrotation Xrotation
		JOINT RightUpLeg
		{
			OFFSET -1.800000 -1.400000 0.085000
			CHANNELS 3 Zrotation Yrotation Xrotation
			JOINT RightLeg
			{
				OFFSET -2.215000 -6.000000 0.000000
				CHANNELS 3 Zrotation Yrotation Xrotation
				JOINT RightFoot
				{
					OFFSET -2.500000 -6.900000 0.000000
					CHANNELS 3 Zrotation Yrotation Xrotation
					JOINT RightToeBase
					{
						OFFSET -0.200000 -0.500000 1.950000
						CHANNELS 3 Zrotation Yrotation Xrotation
						End Site
						{
							OFFSET 0.000000 0.000000 0.000000
						}
					}
				}
			}
		}
	}
	JOINT LowerBack
	{
		OFFSET 0.000000 0.000000 0.000000
		CHANNELS 3 Zrotation Yrotation Xrotation
		JOINT Spine
		{
			OFFSET -0.087000 1.940000 -0.288900
			CHANNELS 3 Zrotation Yrotation Xrotation
			JOINT Spine1
			{
				OFFSET 0.000000 1.950000 0.060000
				CHANNELS 3 Zrotation Yrotation Xrotation
				JOINT Neck
				{
					OFFSET 0.000000 0.000000 0.000000
					CHANNELS 3 Zrotation Yrotation Xrotation
					JOINT Neck1
					{
						OFFSET 0.000000 1.600000 0.340000
						CHANNELS 3 Zrotation Yrotation Xrotation
						JOINT Head
						{
							OFFSET 0.000000 1.667000 -0.240000
							CHANNELS 3 Zrotation Yrotation Xrotation
							End Site
							{
								OFFSET 0.000000 0.000000 0.000000
							}
						}
					}
				}
				JOINT LeftShoulder
				{
					OFFSET 0.000000 0.000000 0.000000
					CHANNELS 3 Zrotation Yrotation Xrotation
					JOINT LeftArm
					{
						OFFSET 2.700000 1.550000 -0.730000
						CHANNELS 3 Zrotation Yrotation Xrotation
						JOINT LeftForeArm
						{
							OFFSET 5.450000 0.000000 0.000000
							CHANNELS 3 Zrotation Yrotation Xrotation
							JOINT LeftHand
							{
								OFFSET 3.450000 0.000000 0.000000
								CHANNELS 3 Zrotation Yrotation Xrotation
								JOINT LeftHandIndex1
								{
									OFFSET 0.750000 0.000000 0.000000
									CHANNELS 3 Zrotation Yrotation Xrotation
									End Site
									{
										OFFSET 0.000000 0.000000 0.000000
									}
								}
							}
						}
					}
				}
				JOINT RightShoulder
				{
					OFFSET 0.000000 0.000000 0.000000
					CHANNELS 3 Zrotation Yrotation Xrotation
					JOINT RightArm
					{
						OFFSET -2.700000 1.550000 -0.730000
						CHANNELS 3 Zrotation Yrotation Xrotation
						JOINT RightForeArm
						{
							OFFSET -5.450000 0.000000 0.000000
							CHANNELS 3 Zrotation Yrotation Xrotation
							JOINT RightHand
							{
								OFFSET -3.450000 0.000000 0.000000
								CHANNELS 3 Zrotation Yrotation Xrotation
								JOINT RightHandIndex1
								{
									OFFSET -0.750000 0.000000 0.000000
									CHANNELS 3 Zrotation Yrotation Xrotation
									End Site
									{
										OFFSET 0.000000 0.000000 0.000000
									}
								}
							}
						}
					}
				}
			}
		}
	}
}
MOTION
Frames: 13
Frame Time: 0.016667
-0.687100 16.352880 -1.483720 -4.797964 6.931828 0.688376 -15.105231 10.634379 5.780860 14.677649 -8.488523 -38.403233 -29.722626 24.338997 44.530692 1.220339 12.469124 0.490712 -0.021100 -0.348000 -0.032280 18.665134 -10.288446 2.105773 -5.260097 4.621682 -25.344913 -2.944246 -7.694035 48.437522 -0.628677 -7.133798 2.017723 -0.150940 0.609260 0.156230 -4.336587 0.284075 -8.768161 17.533392 1.561939 15.361792 0.793339 3.701165 4.974748 1.887739 3.615791 -7.849276 4.297817 -6.086387 42.151919 -4.783100 -2.091480 4.291700 -16.065505 -3.627504 1.511507 -47.980188 -14.575294 -2.134192 -6.735391 -57.541075 1.493338 -3.909822 3.052348 0.319980 0.392890 -0.351490 0.117750 12.010222 2.575550 3.907315 50.467709 6.236300 -10.631106 0.693876 51.626124 -1.555484 1.804838 -1.431329 -0.337700 0.288260 0.264750 -0.135750 
-0.668760 16.315590 -1.478580 -4.154008 6.719689 0.495580 -15.156919 10.553897 5.961514 16.111268 -8.269821 -38.675823 -32.705274 26.014604 44.079807 1.349049 12.846083 0.390366 -0.011630 -0.344670 -0.003180 18.629779 -10.184164 2.048396 -6.483816 4.614144 -25.593888 -2.689712 -8.151197 49.483336 -0.671582 -7.339281 1.941167 -0.152350 0.584160 0.151980 -4.207686 0.161988 -8.882676 16.840921 1.524628 15.972977 1.453110 3.766210 4.358084 1.902529 3.515624 -7.786689 4.137443 -6.073278 42.599677 -5.454010 -1.629570 4.198640 -16.929722 -3.436451 1.522358 -48.116104 -13.827839 -2.277409 -8.795480 -58.887076 2.607784 -3.898054 3.065602 0.335320 0.380550 -0.337750 0.109520 12.896587 2.773315 3.674661 49.195653 6.386715 -10.166567 -0.069383 49.175623 -1.584350 1.828782 -1.399605 -0.338520 0.282890 0.253810 -0.150890 
-0.617510 16.266700 -1.458630 -3.977558 6.248740 -0.147304 -15.188655 10.407615 6.228591 19.233922 -7.383671 -38.607839 -37.327232 28.573970 43.058153 1.538915 13.302203 0.245850 0.024140 -0.311500 0.042710 18.620399 -10.060877 1.979715 -8.043264 4.600366 -25.425816 -1.743390 -9.213794 50.949690 -0.770989 -7.680048 1.805173 -0.159520 0.510920 0.174010 -4.150806 0.122097 -9.072317 17.535036 1.342365 17.054832 1.943255 4.093752 2.990758 2.113532 3.402056 -7.781127 4.122165 -6.210085 44.148649 -6.040680 -1.134700 3.708380 -18.122707 -2.610324 1.374569 -49.301510 -13.081262 -1.844687 -13.914304 -60.446751 5.574277 -3.866621 3.135867 0.362740 0.339640 -0.284610 0.094550 13.604577 2.570934 3.438551 48.044645 6.266399 -9.302951 -1.648625 44.252329 -1.668446 1.887635 -1.355800 -0.295810 0.235700 0.232250 -0.165010 
-0.548510 16.227370 -1.435740 -3.371845 6.131303 -0.549028 -15.234868 10.270820 6.484076 21.928609 -6.730659 -38.564805 -42.161099 30.827991 41.627147 1.702291 13.574026 0.147199 0.078810 -0.258690 0.093530 18.597805 -9.951935 1.894287 -10.168610 4.289540 -25.436561 -0.653615 -10.472357 52.034508 -0.866140 -8.012211 1.654823 -0.162730 0.419180 0.218100 -4.057562 0.064112 -9.235817 17.688775 1.124844 17.643855 2.731712 4.214828 1.933720 2.328817 3.410415 -8.014665 4.399870 -6.657493 45.704731 -6.863500 -0.710610 3.407570 -19.135485 -2.163945 1.549587 -51.282645 -12.056924 -1.629134 -19.578275 -62.617473 9.006007 -3.822123 3.249923 0.385080 0.296360 -0.222430 0.081720 14.193034 2.700936 3.304981 47.011041 6.214084 -8.164773 -4.012083 37.698862 -1.927985 1.966869 -1.337185 -0.229480 0.152080 0.200950 -0.175910 
-0.474780 16.202260 -1.419380 -2.701599 6.329564 -1.071817 -15.292727 10.235062 6.683968 24.328248 -6.254559 -38.124802 -45.978365 32.495232 40.437207 1.784632 13.724022 0.082491 0.117320 -0.224260 0.135490 18.554933 -9.879432 1.786423 -11.901300 3.740835 -25.262678 -0.459997 -11.241139 52.938018 -0.938533 -8.235515 1.553414 -0.159640 0.350310 0.235030 -3.921259 -0.110244 -9.357054 17.539828 0.648129 18.278122 3.622097 4.081518 1.170817 2.548679 3.197463 -8.328238 4.295407 -6.762203 47.336908 -7.342330 -0.273060 2.629930 -20.138940 -1.875441 1.795836 -53.733480 -11.064850 -1.495066 -24.815411 -65.687971 12.584389 -3.784211 3.310174 0.426700 0.253950 -0.172830 0.067570 14.811452 3.089075 3.257358 45.381627 6.272257 -6.877632 -5.352242 31.055373 -1.799992 2.043614 -1.296085 -0.201280 0.116730 0.187200 -0.196280 
-0.410350 16.211720 -1.413950 -2.173482 6.531975 -1.663029 -15.313106 10.260349 6.830811 26.649268 -5.715762 -36.976330 -50.022632 33.209893 37.944564 1.773646 13.656811 0.090868 0.118720 -0.246780 0.156810 18.541407 -9.861961 1.669212 -12.613739 3.223934 -25.057844 -1.573706 -11.074785 53.651661 -0.963581 -8.273603 1.528499 -0.167330 0.324340 0.214060 -3.884957 -0.297528 -9.434212 18.003720 -0.354332 18.895928 3.331046 3.425819 0.978966 2.682983 2.397999 -8.835675 3.004772 -5.832781 49.408495 -6.775250 0.066670 2.072600 -21.597303 -2.621022 2.346842 -54.563830 -9.388924 -2.269352 -30.760534 -70.089416 17.112854 -3.761396 3.314640 0.493070 0.212600 -0.155750 0.049170 15.978421 4.516624 3.576328 44.182361 6.139070 -6.025383 -6.000555 25.007872 -1.593296 2.108983 -1.229234 -0.229830 0.134990 0.200720 -0.226520 
-0.343220 16.240870 -1.398790 -2.017619 6.568529 -1.555660 -15.301567 10.240973 6.914350 28.770287 -5.046465 -35.726963 -53.025203 32.990049 35.077004 1.759912 13.444419 0.180661 0.119240 -0.262200 0.188700 18.566004 -9.922698 1.555732 -12.410929 2.722069 -25.077199 -3.141218 -10.225355 53.100638 -0.919167 -8.048371 1.622046 -0.173850 0.322410 0.180690 -3.948267 -0.232560 -9.419178 18.836035 -0.735301 18.301603 2.979340 3.248983 0.473751 2.918250 2.536150 -8.900095 3.374517 -6.212822 49.909983 -7.024720 0.369510 2.786000 -22.487323 -2.117624 2.432965 -55.838366 -8.620093 -1.466108 -39.342747 -72.406816 24.076450 -3.771006 3.308164 0.507230 0.204620 -0.157860 0.058930 16.294732 3.848983 3.471404 44.217258 5.200979 -5.355911 -6.082487 20.223118 -1.349659 2.180390 -1.198687 -0.256670 0.161390 0.174460 -0.241220 
-0.276800 16.290360 -1.384690 -2.209886 6.143670 -1.892040 -15.284649 10.355124 6.946735 30.718344 -4.357798 -33.505722 -54.671212 32.124413 32.478106 1.719173 13.157137 0.242391 0.133140 -0.236690 0.200150 18.573859 -10.041102 1.408284 -11.250107 2.245104 -24.115931 -5.441336 -8.640279 51.702439 -0.861452 -7.628641 1.771495 -0.176250 0.290010 0.174260 -3.998548 -0.275631 -9.354620 20.145928 -1.097242 18.119761 2.691836 3.275941 0.121436 3.101103 2.332871 -9.083727 2.882514 -6.450831 51.424154 -7.087870 0.227280 2.677690 -22.537733 -1.435051 2.391512 -57.390468 -8.496580 -0.168527 -47.802451 -72.997527 30.723912 -3.774985 3.312102 0.519530 0.180430 -0.130180 0.056970 15.863112 3.233318 3.606166 44.715725 3.863320 -5.259180 -6.566490 17.159652 -1.206506 2.231994 -1.176546 -0.237820 0.155600 0.159790 -0.238960 
-0.210510 16.339840 -1.360970 -1.905818 5.869561 -1.314018 -15.260007 10.506132 6.869919 31.061605 -4.127842 -31.669633 -54.338057 30.538832 30.410744 1.686772 12.888125 0.350627 0.064020 -0.308670 0.131200 18.577965 -10.164129 1.295866 -10.778524 1.701736 -23.577804 -7.158226 -7.339102 49.392519 -0.736772 -7.172330 1.961820 -0.226750 0.365210 0.177430 -4.045885 -0.360969 -9.230019 20.434243 -1.303711 17.025494 2.903555 2.998165 -0.313512 2.664852 2.161843 -8.966234 2.121283 -6.061985 50.941834 -6.770290 0.202060 4.666860 -21.086476 -0.188131 2.593819 -59.899139 -8.199745 1.589187 -56.154997 -73.037759 37.235460 -3.849651 3.307631 0.479980 0.227120 -0.170120 0.071530 15.214398 1.622441 3.141122 45.478678 2.955382 -5.508798 -7.626469 16.207108 -1.232623 2.254187 -1.161283 -0.245860 0.170770 0.187460 -0.207650 
-0.132620 16.411450 -1.337490 -1.885943 5.968462 -0.914374 -15.228613 10.743489 6.706980 30.481796 -4.358491 -29.777934 -51.651618 28.054003 28.963494 1.537834 12.509657 0.430904 0.033370 -0.363060 0.101950 18.565628 -10.332162 1.185903 -10.089548 0.999183 -22.451250 -8.665112 -6.160067 46.300160 -0.617269 -6.665860 2.129182 -0.257090 0.374360 0.211090 -4.078630 -0.501739 -9.047594 21.071622 -1.425246 15.766650 2.966535 2.784998 -0.587526 2.677130 2.483341 -8.898999 2.130669 -6.590722 50.329422 -7.801950 0.238880 6.367250 -19.564184 0.816868 2.536463 -61.718371 -8.637854 3.642818 -61.483804 -70.421224 40.084720 -3.882147 3.365803 0.467490 0.254650 -0.193280 0.067080 13.625034 -0.197159 3.013071 47.230403 1.171900 -6.250421 -8.582765 16.802666 -1.332531 2.242364 -1.202778 -0.241580 0.118550 0.208410 -0.211020 
-0.042900 16.475800 -1.308720 -2.079148 6.012009 -0.229821 -15.150552 10.938896 6.439467 29.386292 -4.519647 -27.884881 -48.306867 25.422417 27.407767 1.359695 12.053553 0.555810 -0.017960 -0.443670 0.061960 18.606540 -10.484433 1.130167 -9.650540 0.462845 -21.801281 -9.486370 -5.455998 43.426276 -0.495575 -6.249763 2.268077 -0.287680 0.416980 0.230450 -4.248481 -0.546178 -8.791608 22.638458 -1.575423 13.825643 2.144873 2.273158 -0.399394 2.611533 2.556741 -8.478180 1.476055 -6.841905 48.533944 -8.406980 -0.038030 8.175210 -17.875127 1.998348 2.306595 -62.390573 -9.247869 5.522176 -65.661379 -67.787138 41.955363 -3.926656 3.422185 0.436170 0.297000 -0.245410 0.061630 11.945016 -2.420125 2.763831 48.964940 -0.651778 -7.122736 -8.590484 18.425512 -1.396428 2.218902 -1.238854 -0.258970 0.088990 0.239580 -0.209780 
0.048250 16.548460 -1.288080 -2.626697 5.708177 0.627761 -15.064768 11.156178 6.137120 27.947943 -4.498462 -26.346683 -44.495442 23.204731 26.407752 1.236631 11.550257 0.710951 -0.049000 -0.497120 0.034650 18.650086 -10.606076 1.161676 -8.402139 0.286814 -21.433023 -10.747996 -4.403605 40.155604 -0.381027 -5.750186 2.447787 -0.327170 0.446330 0.256060 -4.426999 -0.583728 -8.555490 24.807026 -2.001729 12.335591 0.573543 1.697197 -0.799577 2.636556 2.299433 -8.105014 0.642529 -6.549955 46.561690 -8.396370 -0.073320 10.030770 -15.831682 3.923234 2.032851 -62.636902 -9.134892 7.305549 -70.701020 -65.803894 44.938076 -3.936476 3.521685 0.384390 0.325710 -0.282790 0.069130 9.631516 -4.925816 2.565000 51.188206 -2.201317 -8.355351 -8.611600 22.874421 -1.577261 2.189475 -1.306832 -0.240420 0.035240 0.238950 -0.188950 
0.144260 16.632950 -1.284890 -2.950829 5.851109 1.231940 -14.989676 11.422426 5.774653 25.758785 -4.789627 -24.994460 -40.413319 21.181954 26.073867 1.031212 11.082284 0.865436 -0.131660 -0.613970 -0.037980 18.675674 -10.737534 1.194626 -7.400454 -0.003058 -20.898098 -12.216555 -3.447783 36.732311 -0.250346 -5.297695 2.634073 -0.362850 0.534700 0.248090 -4.562309 -0.696139 -8.286751 26.628692 -2.522830 11.021400 -0.599938 0.912659 -0.552027 2.476049 1.653962 -7.706980 -0.930997 -6.031343 44.898925 -8.046080 -0.637980 11.558710 -14.187324 5.299111 1.718363 -62.745400 -9.596270 8.621070 -73.160113 -64.480701 46.149248 -3.987720 3.538933 0.363390 0.378500 -0.363870 0.062280 8.205852 -6.646426 2.530255 51.673136 -3.731546 -9.412703 -7.146174 27.035885 -1.382876 2.110467 -1.322961 -0.296360 0.057900 0.301360 -0.187650 
